G04 Layer_Physical_Order=1*
G04 Layer_Color=255*
%FSLAX44Y44*%
%MOMM*%
G71*
G01*
G75*
G04:AMPARAMS|DCode=10|XSize=0.55mm|YSize=1.75mm|CornerRadius=0.1375mm|HoleSize=0mm|Usage=FLASHONLY|Rotation=90.000|XOffset=0mm|YOffset=0mm|HoleType=Round|Shape=RoundedRectangle|*
%AMROUNDEDRECTD10*
21,1,0.5500,1.4750,0,0,90.0*
21,1,0.2750,1.7500,0,0,90.0*
1,1,0.2750,0.7375,0.1375*
1,1,0.2750,0.7375,-0.1375*
1,1,0.2750,-0.7375,-0.1375*
1,1,0.2750,-0.7375,0.1375*
%
%ADD10ROUNDEDRECTD10*%
G04:AMPARAMS|DCode=11|XSize=0.55mm|YSize=1.75mm|CornerRadius=0.1375mm|HoleSize=0mm|Usage=FLASHONLY|Rotation=180.000|XOffset=0mm|YOffset=0mm|HoleType=Round|Shape=RoundedRectangle|*
%AMROUNDEDRECTD11*
21,1,0.5500,1.4750,0,0,180.0*
21,1,0.2750,1.7500,0,0,180.0*
1,1,0.2750,-0.1375,0.7375*
1,1,0.2750,0.1375,0.7375*
1,1,0.2750,0.1375,-0.7375*
1,1,0.2750,-0.1375,-0.7375*
%
%ADD11ROUNDEDRECTD11*%
%ADD12C,0.3556*%
%ADD13C,0.5080*%
%ADD14C,0.3810*%
%ADD15C,0.6350*%
%ADD16C,0.2540*%
%ADD17C,0.4000*%
%ADD18C,0.1500*%
G04:AMPARAMS|DCode=19|XSize=1.2192mm|YSize=1.7272mm|CornerRadius=0.3048mm|HoleSize=0mm|Usage=FLASHONLY|Rotation=0.000|XOffset=0mm|YOffset=0mm|HoleType=Round|Shape=RoundedRectangle|*
%AMROUNDEDRECTD19*
21,1,1.2192,1.1176,0,0,0.0*
21,1,0.6096,1.7272,0,0,0.0*
1,1,0.6096,0.3048,-0.5588*
1,1,0.6096,-0.3048,-0.5588*
1,1,0.6096,-0.3048,0.5588*
1,1,0.6096,0.3048,0.5588*
%
%ADD19ROUNDEDRECTD19*%
%ADD20C,2.0000*%
G04:AMPARAMS|DCode=21|XSize=8mm|YSize=8mm|CornerRadius=2mm|HoleSize=0mm|Usage=FLASHONLY|Rotation=90.000|XOffset=0mm|YOffset=0mm|HoleType=Round|Shape=RoundedRectangle|*
%AMROUNDEDRECTD21*
21,1,8.0000,4.0000,0,0,90.0*
21,1,4.0000,8.0000,0,0,90.0*
1,1,4.0000,2.0000,2.0000*
1,1,4.0000,2.0000,-2.0000*
1,1,4.0000,-2.0000,-2.0000*
1,1,4.0000,-2.0000,2.0000*
%
%ADD21ROUNDEDRECTD21*%
%ADD22C,1.1000*%
%ADD23C,1.5000*%
%ADD24C,0.6000*%
G36*
X910027Y69393D02*
X909439Y69275D01*
X908734Y69158D01*
X907793Y68923D01*
X906852Y68570D01*
X904736Y67629D01*
X903678Y66924D01*
X902619Y66218D01*
X901679Y65395D01*
X900738Y64337D01*
X900033Y63161D01*
X899445Y61868D01*
X899092Y60457D01*
X898975Y58811D01*
Y54813D01*
Y54696D01*
Y54343D01*
X899092Y53755D01*
X899327Y53050D01*
X899445Y52109D01*
X899798Y51169D01*
X900150Y50110D01*
X900738Y49052D01*
X901326Y47994D01*
X902032Y46936D01*
X902972Y45995D01*
X904030Y45055D01*
X905206Y44349D01*
X906617Y43761D01*
X908263Y43408D01*
X910027Y43291D01*
X913201D01*
X913789Y43408D01*
X914495Y43526D01*
X915435Y43644D01*
X916376Y43996D01*
X917434Y44349D01*
X918492Y44937D01*
X919550Y45525D01*
X920609Y46466D01*
X921549Y47406D01*
X922490Y48699D01*
X923195Y50110D01*
X923783Y51874D01*
X924136Y53873D01*
X924254Y56107D01*
Y56224D01*
Y56695D01*
X924136Y57400D01*
X924018Y58223D01*
X923783Y59164D01*
X923548Y60340D01*
X923078Y61515D01*
X922490Y62809D01*
X921785Y64102D01*
X920844Y65278D01*
X919786Y66453D01*
X918492Y67394D01*
X916846Y68335D01*
X915083Y68923D01*
X912966Y69393D01*
X910497Y69510D01*
X910380D01*
X910027Y69393D01*
D02*
G37*
G36*
X1000561D02*
X999385Y69158D01*
X997974Y68570D01*
X996328Y67629D01*
X995623Y67041D01*
X994800Y66336D01*
X994094Y65395D01*
X993389Y64337D01*
X992801Y63161D01*
X992213Y61868D01*
X991860Y57870D01*
Y55754D01*
X991390Y55284D01*
Y54813D01*
X991507D01*
X991860Y54696D01*
X992448Y54578D01*
X993389Y54343D01*
X994682Y54226D01*
X996328Y53990D01*
X998327Y53873D01*
X1008203D01*
X1008086Y53638D01*
X1007851Y53167D01*
X1007498Y52344D01*
X1006792Y51521D01*
X1005969Y50581D01*
X1004911Y49758D01*
X1003618Y49287D01*
X1001972Y49052D01*
X999385D01*
X993154Y50816D01*
X992683Y50346D01*
Y45525D01*
Y45407D01*
X992918Y45172D01*
X993389Y44819D01*
X994094Y44349D01*
X995152Y43879D01*
X995858Y43644D01*
X996798Y43408D01*
X997739Y43291D01*
X998915Y43056D01*
X1000208Y42938D01*
X1001619Y42821D01*
X1003500D01*
X1003970Y42938D01*
X1004676Y43056D01*
X1005499Y43173D01*
X1006557Y43526D01*
X1007733Y43879D01*
X1009026Y44232D01*
X1010202Y44819D01*
X1011495Y45525D01*
X1012789Y46348D01*
X1013964Y47289D01*
X1015023Y48464D01*
X1015846Y49758D01*
X1016551Y51286D01*
X1017021Y52932D01*
X1017139Y54813D01*
Y56107D01*
Y56224D01*
Y56577D01*
X1017021Y57165D01*
X1016904Y57988D01*
X1016786Y58811D01*
X1016551Y59869D01*
X1016199Y61045D01*
X1015728Y62103D01*
X1015140Y63279D01*
X1014435Y64455D01*
X1013494Y65630D01*
X1012436Y66689D01*
X1011143Y67629D01*
X1009614Y68452D01*
X1007968Y69040D01*
X1005969Y69510D01*
X1001031D01*
X1000561Y69393D01*
D02*
G37*
G36*
X831956Y57870D02*
Y57518D01*
Y57400D01*
X832074Y56812D01*
X832191Y56107D01*
X832309Y55166D01*
X832544Y53990D01*
X832779Y52697D01*
X833367Y49993D01*
X833955Y47171D01*
X834307Y45878D01*
X834660Y44702D01*
X835013Y43761D01*
X835248Y43056D01*
X835601Y42468D01*
X835954Y42350D01*
X838305D01*
X838423Y42468D01*
X838775Y42821D01*
X839128Y43526D01*
X839363Y43996D01*
X839716Y44702D01*
X839951Y45407D01*
X840304Y46348D01*
X840657Y47406D01*
X841009Y48699D01*
X841362Y50110D01*
X841715Y51757D01*
X842185D01*
Y51639D01*
X842303Y51404D01*
X842420Y50933D01*
X842538Y50346D01*
X842891Y48817D01*
X843361Y47053D01*
X843949Y45290D01*
X844537Y43879D01*
X844772Y43173D01*
X845125Y42703D01*
X845360Y42468D01*
X845712Y42350D01*
X848064D01*
X848182Y42586D01*
X848417Y42821D01*
X848534Y43173D01*
X848769Y43644D01*
X849005Y44232D01*
X849240Y45055D01*
X849593Y46113D01*
X849945Y47289D01*
X850298Y48699D01*
X850651Y50463D01*
X851003Y52462D01*
X851474Y54813D01*
X851944Y57518D01*
Y57870D01*
X851003Y58811D01*
X849593D01*
X849475Y58693D01*
X849122Y58341D01*
X848769Y57635D01*
X848534Y57047D01*
X848299Y56459D01*
X847946Y55637D01*
X847711Y54696D01*
X847476Y53638D01*
X847123Y52227D01*
X846888Y50816D01*
X846535Y49052D01*
X846183D01*
Y49170D01*
X846065Y49523D01*
X845948Y49993D01*
X845830Y50581D01*
X845477Y52109D01*
X845007Y53990D01*
X844419Y55754D01*
X843831Y57283D01*
X843478Y57870D01*
X843126Y58341D01*
X842891Y58693D01*
X842538Y58811D01*
X841127D01*
X841009Y58693D01*
X840657Y58341D01*
X840186Y57635D01*
X839951Y57047D01*
X839716Y56459D01*
X839363Y55637D01*
X839128Y54696D01*
X838775Y53638D01*
X838423Y52227D01*
X838070Y50816D01*
X837717Y49052D01*
X837247D01*
Y49170D01*
X837129Y49523D01*
Y49993D01*
X837012Y50581D01*
X836659Y52109D01*
X836306Y53990D01*
X835836Y55754D01*
X835366Y57283D01*
X835013Y57870D01*
X834778Y58341D01*
X834425Y58693D01*
X834190Y58811D01*
X832779D01*
X831956Y57870D01*
D02*
G37*
G36*
X784455Y58693D02*
X783985Y58576D01*
X783514Y58341D01*
X783044Y58106D01*
X782574Y57635D01*
X782221Y57047D01*
Y55754D01*
Y55637D01*
X782339Y55284D01*
X782809Y54931D01*
X783044Y54813D01*
X783514D01*
X787982Y55284D01*
X788335Y54813D01*
Y53520D01*
X788217D01*
X787982Y53403D01*
X787630Y53285D01*
X787159Y53167D01*
X785984Y52697D01*
X784573Y52109D01*
X783162Y51286D01*
X781986Y50346D01*
X781516Y49758D01*
X781163Y49170D01*
X780928Y48464D01*
X780810Y47759D01*
Y47524D01*
X780928Y46936D01*
X781163Y46113D01*
X781633Y45172D01*
X782339Y44114D01*
X783397Y43173D01*
X784102Y42821D01*
X784925Y42468D01*
X785984Y42233D01*
X787042Y41998D01*
X787277D01*
X787982Y42115D01*
X788805Y42350D01*
X789864Y42586D01*
X790922Y42938D01*
X791862Y43408D01*
X792568Y43996D01*
X792685Y44232D01*
X792803Y44584D01*
Y45055D01*
X791510Y46818D01*
X786219Y45995D01*
X785278Y46818D01*
Y47759D01*
X785396Y47876D01*
X785631Y48112D01*
X786101Y48347D01*
X786807Y48699D01*
X787865Y49170D01*
X788570Y49405D01*
X789393Y49640D01*
X790451Y49993D01*
X791510Y50346D01*
X792333Y53050D01*
Y54343D01*
Y54578D01*
X792097Y55049D01*
X791862Y55754D01*
X791510Y56577D01*
X790922Y57400D01*
X790099Y58106D01*
X789158Y58576D01*
X787982Y58811D01*
X784925D01*
X784455Y58693D01*
D02*
G37*
G36*
X954706Y59164D02*
X954471Y59046D01*
X954118Y58811D01*
X953765Y58341D01*
X953413Y57753D01*
X953060Y57047D01*
X952707Y56107D01*
Y55989D01*
X952825Y55637D01*
X953060Y55284D01*
X953295Y54696D01*
X954000Y53638D01*
X954471Y53285D01*
X954941Y53050D01*
X956705D01*
X957293Y53167D01*
X957763Y53403D01*
X958351Y53755D01*
X958939Y54343D01*
X959291Y55049D01*
X959409Y56107D01*
Y56224D01*
Y56459D01*
X959291Y56930D01*
X959174Y57400D01*
X958939Y57988D01*
X958704Y58458D01*
X958233Y58929D01*
X957645Y59281D01*
X954824D01*
X954706Y59164D01*
D02*
G37*
G36*
X793744Y57870D02*
Y43291D01*
X794567Y42350D01*
X796330D01*
X797271Y43291D01*
Y57870D01*
X796330Y58811D01*
X794567D01*
X793744Y57870D01*
D02*
G37*
G36*
X860527Y83149D02*
X859939Y82914D01*
X859116Y82562D01*
X858293Y81856D01*
X857588Y80798D01*
X857353Y80210D01*
X857000Y79387D01*
X856882Y78564D01*
X856765Y77506D01*
Y77388D01*
X856882Y77153D01*
X857117Y76683D01*
X857353Y76095D01*
X857705Y75272D01*
X858176Y74331D01*
X858646Y73273D01*
X859116Y72097D01*
X860292Y69510D01*
X861703Y66571D01*
X863114Y63279D01*
X864642Y59869D01*
X866288Y56459D01*
X867934Y53050D01*
X869463Y49758D01*
X870991Y46701D01*
X872520Y43879D01*
X873225Y42703D01*
X873813Y41527D01*
X874401Y40587D01*
X874989Y39646D01*
X875459Y38941D01*
X875930Y38353D01*
X878164Y38000D01*
X879575D01*
X880045Y38118D01*
X880633Y38235D01*
X881338Y38588D01*
X882044Y39176D01*
X882867Y39999D01*
X883455Y41175D01*
X883925Y42821D01*
Y43761D01*
Y43879D01*
X883807Y44232D01*
X883690Y44702D01*
X883337Y45407D01*
X882984Y46348D01*
X882396Y47641D01*
X881691Y49287D01*
X880750Y51404D01*
X880162Y52697D01*
X879575Y53990D01*
X878869Y55519D01*
X878164Y57047D01*
X877340Y58811D01*
X876400Y60692D01*
X875459Y62809D01*
X874401Y65043D01*
X873225Y67394D01*
X872050Y69863D01*
X870756Y72568D01*
X869345Y75507D01*
X867817Y78564D01*
X866171Y81856D01*
X866053Y81974D01*
X865936Y82091D01*
X865113Y82562D01*
X864172Y83032D01*
X863584Y83267D01*
X860997D01*
X860527Y83149D01*
D02*
G37*
G36*
X874048D02*
X873696Y83032D01*
X873108Y82679D01*
X872520Y82091D01*
X872050Y81503D01*
X871462Y80798D01*
X871109Y79857D01*
X870991Y78799D01*
Y77859D01*
Y77623D01*
X871109Y77271D01*
X871227Y76800D01*
X871579Y75977D01*
X871932Y74919D01*
X872520Y73508D01*
X873225Y71744D01*
X874284Y69510D01*
X874754Y68217D01*
X875459Y66806D01*
X876165Y65278D01*
X876870Y63632D01*
X877811Y61868D01*
X878634Y59987D01*
X879692Y57870D01*
X880750Y55637D01*
X881926Y53285D01*
X883219Y50698D01*
X884513Y47994D01*
X886041Y45172D01*
X887570Y42115D01*
X889216Y38823D01*
X891920Y38000D01*
X893684D01*
X894154Y38118D01*
X894859Y38353D01*
X895565Y38705D01*
X896270Y39293D01*
X896976Y39999D01*
X897681Y41057D01*
Y43761D01*
Y43879D01*
X897564Y44232D01*
X897446Y44584D01*
X897211Y45290D01*
X896858Y46230D01*
X896388Y47406D01*
X895683Y49052D01*
X894859Y51051D01*
X894389Y52109D01*
X893801Y53403D01*
X893213Y54813D01*
X892508Y56342D01*
X891685Y57870D01*
X890979Y59634D01*
X890039Y61633D01*
X889098Y63632D01*
X888040Y65866D01*
X886982Y68217D01*
X885806Y70686D01*
X884513Y73391D01*
X883102Y76212D01*
X881691Y79269D01*
X881573Y79387D01*
X881456Y79740D01*
X881103Y80328D01*
X880750Y80915D01*
X879575Y82209D01*
X878869Y82797D01*
X878164Y83267D01*
X874166D01*
X874048Y83149D01*
D02*
G37*
G36*
X824078Y58576D02*
X823843Y58341D01*
X823608Y58106D01*
X823373Y57635D01*
X823020Y57047D01*
X822667Y56224D01*
X822315Y55284D01*
X821844Y54226D01*
X821256Y52815D01*
X820669Y51169D01*
X820081Y49287D01*
X819375Y47053D01*
X818552Y44584D01*
Y43291D01*
X819493Y42350D01*
X821021D01*
X821139Y42468D01*
X821492Y42703D01*
X821727Y43173D01*
X822079Y43644D01*
X822315Y44467D01*
X822550Y45525D01*
X828076D01*
X828194Y45407D01*
X828429Y45172D01*
X828664Y44702D01*
X829017Y44232D01*
X829369Y43408D01*
X829722Y42350D01*
X831603D01*
X832074Y42586D01*
X832309Y42821D01*
X832426Y43056D01*
X832661Y43526D01*
X832779Y44114D01*
Y44232D01*
X832544Y44702D01*
X832309Y45525D01*
X832074Y46466D01*
X831603Y47524D01*
X831251Y48817D01*
X830192Y51521D01*
X829134Y54108D01*
X828664Y55401D01*
X828194Y56577D01*
X827723Y57400D01*
X827253Y58223D01*
X826900Y58693D01*
X826547Y58811D01*
X824196D01*
X824078Y58576D01*
D02*
G37*
G36*
X803502Y57518D02*
Y45995D01*
X799035D01*
X798212Y45055D01*
Y43291D01*
X799035Y42350D01*
X806207D01*
X806442Y42468D01*
X806795Y42821D01*
X807030Y43173D01*
X807265Y43644D01*
X807383Y44349D01*
X807500Y45055D01*
Y57518D01*
X806207Y58811D01*
X804796D01*
X803502Y57518D01*
D02*
G37*
G36*
X813732Y57870D02*
Y45995D01*
X809264D01*
X807970Y44584D01*
Y43761D01*
X809264Y42350D01*
X815966D01*
X817259Y43761D01*
Y57518D01*
X815966Y58811D01*
X814555D01*
X813732Y57870D01*
D02*
G37*
G36*
X935894Y69393D02*
X935071D01*
X933895Y69158D01*
X932719Y68923D01*
X931191Y68570D01*
X929662Y68100D01*
Y64102D01*
X930485Y63279D01*
X930603Y63397D01*
X930956Y63514D01*
X931543Y63867D01*
X932249Y64220D01*
X934013Y64808D01*
X934953Y64925D01*
X935894Y65043D01*
X938598D01*
X939186Y64925D01*
X939774Y64690D01*
X940479Y64220D01*
X941067Y63749D01*
X941537Y62926D01*
X941655Y61868D01*
Y61750D01*
X941420Y61515D01*
X940949Y61163D01*
X940597Y60927D01*
X940126Y60692D01*
X939539Y60340D01*
X938833Y59987D01*
X938010Y59634D01*
X936952Y59164D01*
X935776Y58693D01*
X934365Y58223D01*
X932719Y57635D01*
X930956Y57047D01*
X930838Y56930D01*
X930485Y56577D01*
X930132Y56107D01*
X929545Y55519D01*
X929074Y54813D01*
X928721Y53990D01*
X928369Y53285D01*
X928251Y52579D01*
Y49875D01*
Y49758D01*
Y49640D01*
X928369Y48935D01*
X928839Y47876D01*
X929192Y47406D01*
X929662Y46701D01*
X930250Y46113D01*
X930956Y45525D01*
X931896Y44937D01*
X932954Y44349D01*
X934248Y43879D01*
X935776Y43408D01*
X937422Y43056D01*
X939421Y42821D01*
X939774D01*
X940126Y42938D01*
X940714D01*
X941890Y43173D01*
X943419Y43408D01*
X944829Y43761D01*
X946123Y44114D01*
X946711Y44349D01*
X947064Y44584D01*
X947299Y44819D01*
X947416Y45055D01*
Y45995D01*
Y46113D01*
Y46466D01*
X947299Y47053D01*
X947181Y47641D01*
X947064Y48229D01*
X946828Y48817D01*
X946476Y49287D01*
X946005Y49523D01*
X945888Y49405D01*
X945535Y49170D01*
X944947Y48817D01*
X944124Y48464D01*
X943183Y47994D01*
X941890Y47641D01*
X940479Y47406D01*
X938951Y47289D01*
X938245D01*
X937775Y47406D01*
X937069Y47641D01*
X936246Y47994D01*
X935423Y48464D01*
X934718Y49052D01*
X934248Y49875D01*
X934013Y50816D01*
Y50933D01*
X934130Y51169D01*
X934600Y51639D01*
X934953Y51992D01*
X935306Y52227D01*
X935894Y52697D01*
X936599Y53050D01*
X937540Y53520D01*
X938480Y53990D01*
X939774Y54461D01*
X941185Y54931D01*
X942831Y55519D01*
X944712Y56107D01*
X944829Y56224D01*
X945182Y56577D01*
X945535Y57047D01*
X946005Y57753D01*
X946593Y58458D01*
X946946Y59164D01*
X947299Y59869D01*
X947416Y60575D01*
Y63279D01*
Y63397D01*
X947299Y63514D01*
X947064Y64220D01*
X946476Y65278D01*
X945535Y66453D01*
X944947Y66924D01*
X944242Y67512D01*
X943419Y68100D01*
X942478Y68570D01*
X941302Y68923D01*
X940126Y69275D01*
X938716Y69393D01*
X937187Y69510D01*
X936599D01*
X935894Y69393D01*
D02*
G37*
G36*
X971284D02*
X970344Y69275D01*
X969285Y69158D01*
X968227Y68923D01*
X967404Y68570D01*
X966699Y68217D01*
X966581Y67982D01*
X966464Y67747D01*
Y63749D01*
X967404Y62338D01*
X967522Y62456D01*
X967875Y62573D01*
X968462Y62926D01*
X969168Y63279D01*
X970108Y63632D01*
X971284Y63984D01*
X972578Y64337D01*
X973988Y64572D01*
X974106D01*
X974459Y64455D01*
X975047Y64220D01*
X975517Y63984D01*
X976105Y63632D01*
X976693Y63161D01*
X977046Y62573D01*
X977163Y61868D01*
X977046D01*
X976693Y61633D01*
X976105Y61398D01*
X975399Y61045D01*
X974459Y60692D01*
X973518Y60222D01*
X971402Y59281D01*
X969285Y58106D01*
X968345Y57635D01*
X967404Y57047D01*
X966699Y56577D01*
X966111Y56107D01*
X965758Y55637D01*
X965641Y55284D01*
X964700Y51757D01*
Y51639D01*
Y51404D01*
X964818Y50933D01*
X964935Y50346D01*
X965288Y48935D01*
X965758Y48112D01*
X966228Y47289D01*
X966816Y46466D01*
X967639Y45642D01*
X968580Y44937D01*
X969756Y44232D01*
X971167Y43644D01*
X972695Y43173D01*
X974576Y42938D01*
X976693Y42821D01*
X978692D01*
X979867Y42938D01*
X981161Y43056D01*
X982572Y43408D01*
X983982Y43761D01*
X985158Y44349D01*
X985629Y44702D01*
X985981Y45055D01*
Y49875D01*
X985158Y50816D01*
X984923Y50698D01*
X984453Y50346D01*
X983630Y49993D01*
X982572Y49523D01*
X981513Y48935D01*
X980220Y48582D01*
X978927Y48229D01*
X977633Y48112D01*
X977281D01*
X976810Y48229D01*
X976340Y48347D01*
X975752Y48699D01*
X975047Y49052D01*
X974459Y49640D01*
X973988Y50346D01*
Y50816D01*
X974106Y51051D01*
X974576Y51286D01*
X974811Y51521D01*
X975282Y51757D01*
X975752Y52109D01*
X976458Y52462D01*
X977281Y52932D01*
X978339Y53403D01*
X979515Y53990D01*
X980808Y54578D01*
X982454Y55284D01*
X984218Y56107D01*
X984335Y56224D01*
X984453Y56577D01*
X984806Y56930D01*
X985041Y57518D01*
X985746Y58811D01*
X985864Y59517D01*
X985981Y60104D01*
Y62809D01*
Y62926D01*
Y63044D01*
X985864Y63632D01*
X985511Y64455D01*
X984923Y65513D01*
X984453Y66101D01*
X983982Y66689D01*
X983277Y67277D01*
X982454Y67747D01*
X981513Y68335D01*
X980338Y68805D01*
X979044Y69158D01*
X977633Y69510D01*
X971990D01*
X971284Y69393D01*
D02*
G37*
G36*
X819493Y76565D02*
Y65513D01*
X816671D01*
X816436Y65395D01*
X815966D01*
X815495Y65160D01*
X815025Y65043D01*
X814555Y64808D01*
X814320Y64455D01*
X814202Y64102D01*
Y62809D01*
X815025Y61868D01*
X822550D01*
X823491Y62809D01*
Y77035D01*
Y77153D01*
X823373Y77271D01*
X823020Y77741D01*
X822667Y77976D01*
X822197Y78094D01*
X821492Y78329D01*
X820786D01*
X819493Y76565D01*
D02*
G37*
G36*
X786336Y78211D02*
X785631Y78094D01*
X784808Y77976D01*
X783985Y77741D01*
X783279Y77388D01*
X782809Y77035D01*
X782574Y76565D01*
Y74802D01*
X783514Y73861D01*
X787042Y74802D01*
X787159D01*
X787277Y74684D01*
X787865Y74331D01*
X788570Y73978D01*
X788688Y73743D01*
X788805Y73508D01*
X782574Y70334D01*
X782456Y70216D01*
X782339Y70098D01*
X781868Y69393D01*
X781516Y68452D01*
X781281Y67864D01*
Y67277D01*
Y66336D01*
Y66101D01*
X781398Y65630D01*
X781633Y64808D01*
X781986Y63984D01*
X782691Y63044D01*
X783750Y62221D01*
X784337Y61986D01*
X785161Y61750D01*
X785984Y61515D01*
X788923D01*
X789511Y61633D01*
X790216Y61750D01*
X790922Y62103D01*
X791745Y62456D01*
X792333Y63044D01*
X792803Y63749D01*
Y65043D01*
X791980Y65866D01*
X791510D01*
X787042Y65043D01*
X786924D01*
X786807Y65160D01*
X786101Y65513D01*
X785513Y66218D01*
X785396Y66689D01*
X785278Y67277D01*
X785396D01*
X785513Y67394D01*
X785866Y67512D01*
X786336Y67629D01*
X787512Y68100D01*
X788805Y68688D01*
X790099Y69393D01*
X791274Y70098D01*
X792215Y70921D01*
X792568Y71274D01*
X792803Y71744D01*
Y73508D01*
Y73743D01*
X792685Y74214D01*
X792450Y75037D01*
X792097Y75977D01*
X791392Y76800D01*
X790334Y77623D01*
X789746Y77859D01*
X788923Y78094D01*
X788100Y78329D01*
X786807D01*
X786336Y78211D01*
D02*
G37*
G36*
X836777Y77859D02*
Y77506D01*
Y77388D01*
X837012Y76800D01*
X837247Y76095D01*
X837482Y75154D01*
X837835Y73978D01*
X838305Y72685D01*
X839246Y69981D01*
X840304Y67159D01*
X840774Y65866D01*
X841245Y64690D01*
X841832Y63749D01*
X842185Y63044D01*
X842655Y62456D01*
X843008Y62338D01*
X844419D01*
X844654Y62573D01*
X844772Y62809D01*
X845007Y63161D01*
X845360Y63632D01*
X845595Y64337D01*
X846065Y65160D01*
X846535Y66101D01*
X847006Y67394D01*
X847594Y68923D01*
X848182Y70686D01*
X848887Y72685D01*
X849710Y75154D01*
X850533Y77859D01*
X849240Y78799D01*
X847829D01*
X847711Y78682D01*
X847358Y78329D01*
X846888Y77623D01*
X846653Y77153D01*
X846300Y76565D01*
X846065Y75742D01*
X845712Y74919D01*
X845242Y73861D01*
X844889Y72568D01*
X844419Y71157D01*
X843949Y69510D01*
X843831Y69628D01*
X843596Y69981D01*
X843126Y70686D01*
X842891Y71274D01*
X842655Y71862D01*
X842303Y72568D01*
X841950Y73508D01*
X841597Y74566D01*
X841009Y75742D01*
X840539Y77153D01*
X839951Y78799D01*
X837717D01*
X836777Y77859D01*
D02*
G37*
G36*
X1022430Y77035D02*
X1021960D01*
X1022430Y75742D01*
X1021960Y45055D01*
X1021607Y43761D01*
X1021960Y43291D01*
X1030896D01*
X1031719Y44114D01*
Y58341D01*
X1043359D01*
Y51286D01*
X1042888Y43761D01*
X1043359Y43291D01*
X1052177D01*
X1052647Y43761D01*
X1053118D01*
X1052647Y51757D01*
X1053118Y77035D01*
X1052647Y77506D01*
X1044182D01*
X1043359Y76565D01*
Y64572D01*
X1031719D01*
Y71744D01*
X1032189Y77035D01*
X1031719Y77506D01*
X1022900D01*
X1022430Y77035D01*
D02*
G37*
G36*
X805384Y78094D02*
X805148Y77859D01*
X804796Y77506D01*
X804561Y77035D01*
X804208Y76448D01*
X803738Y75624D01*
X803267Y74566D01*
X802797Y73273D01*
X802209Y71744D01*
X801621Y69981D01*
X800916Y67982D01*
X800210Y65513D01*
X799505Y62809D01*
X800798Y61515D01*
X801739D01*
X801974Y61633D01*
X802209Y61750D01*
X802444Y61986D01*
X802679Y62338D01*
X803032Y63044D01*
X803267Y63867D01*
X803502Y65043D01*
X808793D01*
X809264Y64572D01*
Y64455D01*
X809499Y64102D01*
X809734Y63632D01*
X810087Y63044D01*
X810440Y62456D01*
X810792Y61986D01*
X811145Y61633D01*
X811498Y61515D01*
X812321D01*
X813732Y62809D01*
Y63044D01*
X813496Y63514D01*
X813261Y64220D01*
X813026Y65278D01*
X812673Y66453D01*
X812203Y67747D01*
X811263Y70569D01*
X810322Y73391D01*
X809734Y74684D01*
X809264Y75860D01*
X808793Y76918D01*
X808323Y77623D01*
X807853Y78211D01*
X807500Y78329D01*
X805619D01*
X805384Y78094D01*
D02*
G37*
G36*
X831368Y78211D02*
X830780Y77859D01*
X830075Y77153D01*
X829604Y76683D01*
X829134Y76095D01*
X828781Y75272D01*
X828311Y74449D01*
X827841Y73391D01*
X827371Y72097D01*
X826900Y70686D01*
X826547Y69040D01*
X824314Y62809D01*
X826195Y61515D01*
X826547D01*
X826665Y61633D01*
X826900Y61750D01*
X827606Y62456D01*
X828429Y63514D01*
X828664Y64220D01*
X828781Y65043D01*
X834543D01*
Y64925D01*
X834660Y64455D01*
X834895Y63984D01*
X835130Y63279D01*
X835483Y62691D01*
X835954Y62103D01*
X836542Y61633D01*
X837247Y61515D01*
X837365D01*
X837482Y61633D01*
X838070Y61868D01*
X838775Y62456D01*
X838893Y62809D01*
X839011Y63279D01*
Y63397D01*
X838775Y63867D01*
X838658Y64572D01*
X838305Y65395D01*
X837952Y66453D01*
X837600Y67629D01*
X836659Y70216D01*
X835601Y72920D01*
X835013Y74214D01*
X834425Y75389D01*
X833837Y76330D01*
X833367Y77271D01*
X832779Y77859D01*
X832309Y78329D01*
X831838D01*
X831368Y78211D01*
D02*
G37*
G36*
X794567Y77035D02*
Y62809D01*
X795977Y61515D01*
X796801D01*
X798212Y62809D01*
Y77035D01*
X796801Y78329D01*
X795977D01*
X794567Y77035D01*
D02*
G37*
%LPC*%
G36*
X911438Y65513D02*
X911673D01*
X912261Y65395D01*
X913201Y65160D01*
X914377Y64572D01*
X915435Y63749D01*
X916023Y63161D01*
X916494Y62456D01*
X916964Y61633D01*
X917434Y60692D01*
X917787Y59634D01*
X918022Y58341D01*
Y54343D01*
Y54226D01*
Y53990D01*
X917905Y53638D01*
X917787Y53285D01*
X917434Y52109D01*
X916964Y50816D01*
X916141Y49523D01*
X915200Y48347D01*
X914612Y47994D01*
X913907Y47641D01*
X913084Y47406D01*
X912261Y47289D01*
X910262D01*
X909557Y47406D01*
X908616Y47759D01*
X907558Y48347D01*
X907087Y48817D01*
X906499Y49405D01*
X906029Y49993D01*
X905676Y50816D01*
X905206Y51874D01*
X904971Y52932D01*
X904854Y54226D01*
X904736Y55754D01*
Y56107D01*
Y56224D01*
Y56459D01*
Y56930D01*
X904854Y57635D01*
X905089Y59046D01*
X905559Y60810D01*
X906382Y62573D01*
X906852Y63279D01*
X907558Y64102D01*
X908381Y64690D01*
X909204Y65160D01*
X910262Y65395D01*
X911438Y65513D01*
D02*
G37*
G36*
X1004206Y64102D02*
X1004323D01*
X1004676Y63984D01*
X1005146Y63867D01*
X1005852Y63514D01*
X1006440Y62926D01*
X1007145Y62103D01*
X1007733Y60927D01*
X1008203Y59281D01*
X1007733D01*
X1002912Y59752D01*
X1000208D01*
Y60104D01*
Y60222D01*
X1000326Y60692D01*
X1000561Y61398D01*
X1000913Y62103D01*
X1001384Y62809D01*
X1002089Y63514D01*
X1003030Y63984D01*
X1004206Y64102D01*
D02*
G37*
G36*
X825254Y54343D02*
X825724D01*
X827018Y49052D01*
X823961D01*
X825254Y54343D01*
D02*
G37*
G36*
X806207Y73038D02*
X807030D01*
X808323Y68570D01*
X804796D01*
X806207Y73038D01*
D02*
G37*
G36*
X831486Y73861D02*
X831956D01*
X833249Y68570D01*
X830192D01*
X831486Y73861D01*
D02*
G37*
%LPD*%
D10*
X568500Y855000D02*
D03*
Y847000D02*
D03*
Y839000D02*
D03*
Y831000D02*
D03*
Y823000D02*
D03*
Y815000D02*
D03*
Y807000D02*
D03*
Y799000D02*
D03*
Y791000D02*
D03*
Y783000D02*
D03*
Y775000D02*
D03*
X455500D02*
D03*
Y783000D02*
D03*
Y791000D02*
D03*
Y799000D02*
D03*
Y807000D02*
D03*
Y815000D02*
D03*
Y823000D02*
D03*
Y831000D02*
D03*
Y839000D02*
D03*
Y847000D02*
D03*
Y855000D02*
D03*
D11*
X552000Y758500D02*
D03*
X544000D02*
D03*
X536000D02*
D03*
X528000D02*
D03*
X520000D02*
D03*
X512000D02*
D03*
X504000D02*
D03*
X496000D02*
D03*
X488000D02*
D03*
X480000D02*
D03*
X472000D02*
D03*
Y871500D02*
D03*
X480000D02*
D03*
X488000D02*
D03*
X496000D02*
D03*
X504000D02*
D03*
X512000D02*
D03*
X520000D02*
D03*
X528000D02*
D03*
X536000D02*
D03*
X544000D02*
D03*
X552000D02*
D03*
D12*
X660000Y812000D02*
Y825000D01*
X592000Y310000D02*
Y342000D01*
X698000Y271000D02*
X678000D01*
X528000Y679000D02*
X504000D01*
X546000Y661000D02*
X528000Y679000D01*
X934000Y961000D02*
Y975000D01*
X535000Y688000D02*
X512000D01*
X559000Y664000D02*
X535000Y688000D01*
X526000Y699000D02*
X520000Y705000D01*
X545000Y699000D02*
X526000D01*
X570000Y674000D02*
X545000Y699000D01*
X546000Y644000D02*
Y661000D01*
Y644000D02*
X497000Y595000D01*
X559000Y643000D02*
Y664000D01*
Y643000D02*
X530000Y614000D01*
X570000Y635000D02*
Y674000D01*
Y635000D02*
X515000Y580000D01*
X497000Y574000D02*
Y595000D01*
X661000Y429000D02*
Y476000D01*
X812000Y854000D02*
X568500D01*
X813000Y645000D02*
Y772000D01*
X680000Y574000D02*
X594000D01*
X455000Y254000D02*
Y293000D01*
X420000Y808000D02*
Y831000D01*
X413000Y708000D02*
Y783000D01*
X428000Y724000D02*
Y775000D01*
X593000D02*
X568500D01*
X617000Y815000D02*
X568500D01*
X511000Y823000D02*
X455500D01*
X655000Y807000D02*
X568500D01*
X503000Y815000D02*
X455500D01*
X765000Y783000D02*
X568500D01*
X677000Y799000D02*
X568500D01*
X818000Y791000D02*
X568500D01*
X624000Y822000D02*
Y836000D01*
Y822000D02*
X617000Y815000D01*
X455000Y254000D02*
X332000D01*
X593000Y342000D02*
X592000D01*
X482000Y594000D02*
X472000D01*
Y758500D01*
X455500Y775000D02*
X428000D01*
X455500Y783000D02*
X413000D01*
X455500Y839000D02*
X397000D01*
X455500Y831000D02*
Y831000D01*
X661000Y476000D02*
X660000D01*
X455500Y847000D02*
X368000D01*
X455500Y847000D02*
Y847000D01*
X813000Y772000D02*
X812000D01*
X568500Y854000D02*
Y855000D01*
X536000Y733000D02*
Y758500D01*
Y733000D02*
X536000D01*
X300000Y605524D02*
X299476D01*
X935000Y975000D02*
X934000D01*
X568500Y807000D02*
Y807000D01*
X660000Y825000D02*
X659000D01*
X568500Y815000D02*
Y815000D01*
X680000Y573000D02*
Y574000D01*
X512000Y901000D02*
Y927000D01*
X623000Y254000D02*
Y452000D01*
X725000Y660000D02*
X698000D01*
X772000D02*
X725000D01*
X455500Y831000D02*
X420000D01*
X698000Y271000D02*
Y272000D01*
X766000Y226000D02*
Y417000D01*
Y226000D02*
X744000Y204000D01*
X669000D01*
X637000D01*
X623000Y218000D01*
Y254000D01*
X678000Y271000D02*
X656000Y293000D01*
X715000Y364000D02*
X656000D01*
X739000Y388000D02*
X715000Y364000D01*
X739000Y388000D02*
Y441000D01*
X755000Y457000D02*
X739000Y441000D01*
X798000Y457000D02*
X755000D01*
X801000Y370000D02*
Y426000D01*
X817000Y354000D02*
X801000Y370000D01*
X845000Y367000D02*
X832000Y354000D01*
X817000D01*
X955000Y858000D02*
X888000D01*
X870000Y876000D01*
X900000Y961000D02*
X879000Y982000D01*
X934000Y961000D02*
X900000D01*
X909000Y975000D02*
X893000Y991000D01*
X360000Y972000D02*
X339000Y951000D01*
X353000Y982000D02*
X320000Y949000D01*
X879000Y982000D02*
X353000D01*
X300000Y605524D02*
Y947000D01*
X344000Y991000D02*
X300000Y947000D01*
X893000Y991000D02*
X344000D01*
X397000Y695000D02*
Y839000D01*
X409000Y683000D02*
X397000Y695000D01*
X435000Y686000D02*
X413000Y708000D01*
X453000Y621000D02*
Y699000D01*
X428000Y724000D01*
X480000Y630000D02*
Y758500D01*
X492000Y618000D02*
X480000Y630000D01*
X497000Y618000D02*
X492000D01*
X488000Y657000D02*
Y758500D01*
X503000Y642000D02*
X488000Y657000D01*
X511000Y642000D02*
X503000D01*
X527000Y662000D02*
X504000D01*
X496000Y670000D01*
Y758500D01*
X504000Y679000D02*
Y758500D01*
X512000Y688000D02*
Y758500D01*
X520000Y705000D02*
Y758500D01*
X528000Y719000D02*
Y758500D01*
X537000Y710000D02*
X528000Y719000D01*
X576000Y710000D02*
X537000D01*
X536000Y729000D02*
Y733000D01*
X541000Y724000D02*
X536000Y729000D01*
X546000Y724000D02*
X541000D01*
X497000Y574000D02*
X480000Y557000D01*
X506000Y564000D02*
X489000Y547000D01*
X593000Y587000D02*
Y775000D01*
Y587000D02*
X543000D01*
X506000Y564000D02*
Y587000D01*
X530000Y614000D02*
X506000Y587000D01*
X405000Y907000D02*
X375000Y937000D01*
Y957000D01*
X476000Y931000D02*
X425000D01*
X488000Y919000D02*
X476000Y931000D01*
X488000Y871500D02*
Y919000D01*
X467000Y907000D02*
X405000D01*
X480000Y894000D02*
X467000Y907000D01*
X480000Y871500D02*
Y894000D01*
X496000Y871500D02*
Y939000D01*
X513000Y956000D02*
X496000Y939000D01*
X504000Y871500D02*
Y893000D01*
X512000Y901000D02*
X504000Y893000D01*
X594000Y894000D02*
X559000D01*
X552000Y887000D01*
Y871500D02*
Y887000D01*
X751000Y914000D02*
X557000D01*
X544000Y901000D01*
Y871500D02*
Y901000D01*
X751000Y937000D02*
X554000D01*
X536000Y919000D01*
Y871500D02*
Y919000D01*
X790000Y578000D02*
Y758000D01*
X765000Y783000D01*
X829000Y370000D02*
Y780000D01*
X818000Y791000D01*
X845000Y367000D02*
Y925000D01*
X814000Y956000D01*
X513000D01*
X870000Y876000D02*
Y956000D01*
X854000Y972000D01*
X360000D01*
X480000Y557000D02*
X370000D01*
X339000Y588000D01*
X435000Y569000D02*
X409000Y595000D01*
Y683000D01*
X451000Y590000D02*
X435000Y606000D01*
Y686000D01*
X489000Y547000D02*
X357000D01*
X320000Y584000D01*
Y949000D01*
X340000Y538000D02*
X299476Y578524D01*
Y605524D01*
X623000Y254000D02*
X455000D01*
X568500Y815000D02*
X519000D01*
X511000Y823000D01*
X568500Y807000D02*
X511000D01*
X503000Y815000D01*
X660000Y812000D02*
X655000Y807000D01*
X686000Y808000D02*
X677000Y799000D01*
X686000Y808000D02*
Y837000D01*
X502000Y538000D02*
X340000D01*
X515000Y551000D02*
X502000Y538000D01*
X515000Y551000D02*
Y580000D01*
D13*
X748000Y563000D02*
X698000D01*
Y557000D02*
Y563000D01*
Y660000D01*
Y557000D02*
X637000D01*
X623000Y543000D01*
Y452000D02*
Y543000D01*
D14*
X656000Y293000D02*
Y364000D01*
D15*
X339000Y588000D02*
Y951000D01*
D16*
X92000Y447088D02*
X41216D01*
X66608Y472479D02*
Y421696D01*
X1028000Y586088D02*
X977216D01*
X1002608Y611479D02*
Y560696D01*
X1030000Y439088D02*
X979216D01*
X95000Y595088D02*
X44216D01*
D17*
X273000Y148990D02*
Y128997D01*
X263003Y119000D01*
X253006Y128997D01*
Y148990D01*
X228015Y119000D02*
X238011D01*
X243010Y123998D01*
Y133995D01*
X238011Y138994D01*
X228015D01*
X223016Y133995D01*
Y128997D01*
X243010D01*
X213019Y138994D02*
Y119000D01*
Y128997D01*
X208021Y133995D01*
X203023Y138994D01*
X198024D01*
X153039Y119000D02*
X143042D01*
X148040D01*
Y148990D01*
X153039Y143992D01*
X128047Y119000D02*
Y123998D01*
X123048D01*
Y119000D01*
X128047D01*
X103055Y143992D02*
X98057Y148990D01*
X88060D01*
X83062Y143992D01*
Y123998D01*
X88060Y119000D01*
X98057D01*
X103055Y123998D01*
Y143992D01*
X1047000Y144000D02*
Y173990D01*
X1032005D01*
X1027007Y168992D01*
Y158995D01*
X1032005Y153997D01*
X1047000D01*
X1012011Y144000D02*
X1002015D01*
X997016Y148998D01*
Y158995D01*
X1002015Y163993D01*
X1012011D01*
X1017010Y158995D01*
Y148998D01*
X1012011Y144000D01*
X987019D02*
Y163993D01*
X972024D01*
X967026Y158995D01*
Y144000D01*
X947032Y134003D02*
X942034D01*
X937036Y139002D01*
Y163993D01*
X952031D01*
X957029Y158995D01*
Y148998D01*
X952031Y144000D01*
X937036D01*
X887052Y134003D02*
X882053D01*
X877055Y139002D01*
Y163993D01*
X892050D01*
X897048Y158995D01*
Y148998D01*
X892050Y144000D01*
X877055D01*
X862060Y163993D02*
X852063D01*
X847065Y158995D01*
Y144000D01*
X862060D01*
X867058Y148998D01*
X862060Y153997D01*
X847065D01*
X837068Y144000D02*
Y163993D01*
X832070D01*
X827071Y158995D01*
Y144000D01*
Y158995D01*
X822073Y163993D01*
X817074Y158995D01*
Y144000D01*
X792083D02*
X802079D01*
X807078Y148998D01*
Y158995D01*
X802079Y163993D01*
X792083D01*
X787084Y158995D01*
Y153997D01*
X807078D01*
X1028007Y92000D02*
X1048000D01*
X1028007Y111994D01*
Y116992D01*
X1033005Y121990D01*
X1043002D01*
X1048000Y116992D01*
X1018010D02*
X1013011Y121990D01*
X1003015D01*
X998016Y116992D01*
Y111994D01*
X1003015Y106995D01*
X998016Y101997D01*
Y96998D01*
X1003015Y92000D01*
X1013011D01*
X1018010Y96998D01*
Y101997D01*
X1013011Y106995D01*
X1018010Y111994D01*
Y116992D01*
X1013011Y106995D02*
X1003015D01*
X988019Y92000D02*
Y96998D01*
X983021D01*
Y92000D01*
X988019D01*
X963027Y116992D02*
X958029Y121990D01*
X948032D01*
X943034Y116992D01*
Y96998D01*
X948032Y92000D01*
X958029D01*
X963027Y96998D01*
Y116992D01*
X933037D02*
X928039Y121990D01*
X918042D01*
X913044Y116992D01*
Y111994D01*
X918042Y106995D01*
X913044Y101997D01*
Y96998D01*
X918042Y92000D01*
X928039D01*
X933037Y96998D01*
Y101997D01*
X928039Y106995D01*
X933037Y111994D01*
Y116992D01*
X928039Y106995D02*
X918042D01*
X903047Y92000D02*
Y96998D01*
X898048D01*
Y92000D01*
X903047D01*
X858062D02*
X878055D01*
X858062Y111994D01*
Y116992D01*
X863060Y121990D01*
X873057D01*
X878055Y116992D01*
X848065D02*
X843066Y121990D01*
X833070D01*
X828071Y116992D01*
Y96998D01*
X833070Y92000D01*
X843066D01*
X848065Y96998D01*
Y116992D01*
X818074Y92000D02*
X808078D01*
X813076D01*
Y121990D01*
X818074Y116992D01*
X793083D02*
X788084Y121990D01*
X778087D01*
X773089Y116992D01*
Y111994D01*
X778087Y106995D01*
X773089Y101997D01*
Y96998D01*
X778087Y92000D01*
X788084D01*
X793083Y96998D01*
Y101997D01*
X788084Y106995D01*
X793083Y111994D01*
Y116992D01*
X788084Y106995D02*
X778087D01*
X268000Y15000D02*
Y44990D01*
X258003Y34994D01*
X248006Y44990D01*
Y15000D01*
X238010D02*
Y44990D01*
X228013Y34994D01*
X218016Y44990D01*
Y15000D01*
D18*
X1077000Y0D02*
X-1000D01*
Y1000000D01*
X1077000Y0D02*
Y1000000D01*
X1078000Y1000000D02*
X-0D01*
D19*
X934000Y901000D02*
D03*
X914000D02*
D03*
X954000D02*
D03*
X934000Y921000D02*
D03*
X914000D02*
D03*
X954000D02*
D03*
D20*
X936500Y808500D02*
D03*
Y763500D02*
D03*
X871500Y808500D02*
D03*
Y763500D02*
D03*
D21*
X1004044Y677000D02*
D03*
Y357000D02*
D03*
Y713000D02*
D03*
Y321000D02*
D03*
X68000Y355000D02*
D03*
Y675000D02*
D03*
Y319000D02*
D03*
Y711000D02*
D03*
D22*
X720700Y596500D02*
D03*
Y8900D02*
D03*
X308500Y596500D02*
D03*
D23*
X455000Y293000D02*
D03*
X593000Y342000D02*
D03*
X511000Y642000D02*
D03*
X482000Y594000D02*
D03*
X497000Y618000D02*
D03*
X453000Y621000D02*
D03*
X451000Y590000D02*
D03*
X435000Y569000D02*
D03*
X661000Y429000D02*
D03*
X660000Y476000D02*
D03*
X829000Y370000D02*
D03*
X543000Y587000D02*
D03*
X368000Y847000D02*
D03*
X813000Y645000D02*
D03*
X812000Y772000D02*
D03*
Y854000D02*
D03*
X790000Y578000D02*
D03*
X751000Y914000D02*
D03*
Y937000D02*
D03*
X801000Y426000D02*
D03*
X592000Y310000D02*
D03*
X527000Y662000D02*
D03*
X546000Y724000D02*
D03*
X576000Y710000D02*
D03*
X375000Y957000D02*
D03*
X425000Y931000D02*
D03*
X909000Y975000D02*
D03*
X935000D02*
D03*
X686000Y837000D02*
D03*
X659000Y825000D02*
D03*
X624000Y836000D02*
D03*
X332000Y254000D02*
D03*
X594000Y894000D02*
D03*
Y574000D02*
D03*
X680000Y573000D02*
D03*
X512000Y927000D02*
D03*
X623000Y452000D02*
D03*
X669000Y204000D02*
D03*
X725000Y660000D02*
D03*
X772000D02*
D03*
X748000Y563000D02*
D03*
X420000Y808000D02*
D03*
X955000Y858000D02*
D03*
X798000Y457000D02*
D03*
X656000Y364000D02*
D03*
X698000Y272000D02*
D03*
X766000Y417000D02*
D03*
D24*
X693000Y399000D02*
D03*
X685000D02*
D03*
Y391000D02*
D03*
X693000D02*
D03*
M02*
